<mxfile host="65bd71144e">
    <diagram id="l4yrOOhOqokm5gJQVhoG" name="PÃ¡gina-1">
        <mxGraphModel dx="801" dy="461" grid="1" gridSize="10" guides="1" tooltips="1" connect="1" arrows="1" fold="1" page="1" pageScale="1" pageWidth="1200" pageHeight="1600" math="0" shadow="0">
            <root>
                <mxCell id="0"/>
                <mxCell id="1" parent="0"/>
                <mxCell id="4" value="" style="edgeStyle=none;html=1;" parent="1" source="2" target="3" edge="1">
                    <mxGeometry relative="1" as="geometry"/>
                </mxCell>
                <mxCell id="2" value="&lt;font size=&quot;1&quot; color=&quot;#000000&quot;&gt;&lt;b style=&quot;font-size: 14px;&quot;&gt;inicio&lt;/b&gt;&lt;/font&gt;" style="ellipse;whiteSpace=wrap;html=1;fillColor=#60a917;fontColor=#ffffff;strokeColor=#2D7600;" parent="1" vertex="1">
                    <mxGeometry x="600" y="10" width="80" height="30" as="geometry"/>
                </mxCell>
                <mxCell id="6" value="" style="edgeStyle=none;html=1;" parent="1" source="3" target="5" edge="1">
                    <mxGeometry relative="1" as="geometry"/>
                </mxCell>
                <mxCell id="3" value="&lt;b style=&quot;&quot;&gt;&lt;font style=&quot;font-size: 12px;&quot; color=&quot;#000000&quot;&gt;-------------------------------------------&lt;br&gt;Minicalculadora Guanentina&lt;br&gt;-------------------------------------------&lt;br&gt;1--&amp;gt; Sumar (x+y)&lt;br&gt;2--&amp;gt; Restar (x-y)&lt;br&gt;3--&amp;gt; Multiplicar (x*y)&lt;br&gt;4--&amp;gt; Division (x/y)&lt;br&gt;5--&amp;gt; Potencia (x^y)&lt;br&gt;6--&amp;gt; Loganitmo (long&lt;sub&gt;x&lt;/sub&gt;y)&lt;/font&gt;&lt;/b&gt;" style="shape=document;whiteSpace=wrap;html=1;boundedLbl=1;fillColor=#008a00;fontColor=#ffffff;strokeColor=#005700;" parent="1" vertex="1">
                    <mxGeometry x="532.5" y="60" width="215" height="180" as="geometry"/>
                </mxCell>
                <mxCell id="8" value="" style="edgeStyle=none;html=1;" parent="1" source="5" target="7" edge="1">
                    <mxGeometry relative="1" as="geometry"/>
                </mxCell>
                <mxCell id="5" value="&lt;b&gt;&lt;font color=&quot;#000000&quot; style=&quot;font-size: 14px;&quot;&gt;x,y&lt;/font&gt;&lt;/b&gt;" style="shape=parallelogram;perimeter=parallelogramPerimeter;whiteSpace=wrap;html=1;fixedSize=1;fillColor=#1ba1e2;fontColor=#ffffff;strokeColor=#006EAF;" parent="1" vertex="1">
                    <mxGeometry x="595" y="280" width="90" height="25" as="geometry"/>
                </mxCell>
                <mxCell id="10" value="" style="edgeStyle=none;html=1;" parent="1" source="7" target="9" edge="1">
                    <mxGeometry relative="1" as="geometry"/>
                </mxCell>
                <mxCell id="7" value="&lt;b&gt;&lt;font color=&quot;#000000&quot; style=&quot;font-size: 14px;&quot;&gt;opc&lt;/font&gt;&lt;/b&gt;" style="shape=parallelogram;perimeter=parallelogramPerimeter;whiteSpace=wrap;html=1;fixedSize=1;fillColor=#0050ef;fontColor=#ffffff;strokeColor=#001DBC;" parent="1" vertex="1">
                    <mxGeometry x="595" y="340" width="90" height="30" as="geometry"/>
                </mxCell>
                <mxCell id="35" style="edgeStyle=none;html=1;exitX=0;exitY=0.5;exitDx=0;exitDy=0;entryX=0.5;entryY=0;entryDx=0;entryDy=0;" edge="1" parent="1" source="9" target="22">
                    <mxGeometry relative="1" as="geometry">
                        <Array as="points">
                            <mxPoint x="540" y="436"/>
                        </Array>
                    </mxGeometry>
                </mxCell>
                <mxCell id="36" style="edgeStyle=none;html=1;exitX=1;exitY=0.5;exitDx=0;exitDy=0;entryX=0.5;entryY=0;entryDx=0;entryDy=0;" edge="1" parent="1" source="9" target="63">
                    <mxGeometry relative="1" as="geometry">
                        <mxPoint x="730" y="462.5" as="targetPoint"/>
                        <Array as="points">
                            <mxPoint x="725" y="436"/>
                        </Array>
                    </mxGeometry>
                </mxCell>
                <mxCell id="9" value="&lt;b&gt;&lt;font color=&quot;#000000&quot; style=&quot;font-size: 13px;&quot;&gt;opc = 1&lt;/font&gt;&lt;/b&gt;" style="rhombus;whiteSpace=wrap;html=1;fillColor=#6a00ff;fontColor=#ffffff;strokeColor=#3700CC;" parent="1" vertex="1">
                    <mxGeometry x="610" y="410" width="60" height="52.5" as="geometry"/>
                </mxCell>
                <mxCell id="57" style="edgeStyle=none;html=1;exitX=0.5;exitY=1;exitDx=0;exitDy=0;" edge="1" parent="1" source="16">
                    <mxGeometry relative="1" as="geometry">
                        <mxPoint x="605" y="820" as="targetPoint"/>
                    </mxGeometry>
                </mxCell>
                <mxCell id="16" value="&lt;b&gt;&lt;font color=&quot;#000000&quot; style=&quot;font-size: 13px;&quot;&gt;r = x - y&lt;/font&gt;&lt;/b&gt;" style="rounded=0;whiteSpace=wrap;html=1;fillColor=#a0522d;fontColor=#ffffff;strokeColor=#6D1F00;" parent="1" vertex="1">
                    <mxGeometry x="570" y="525.63" width="70" height="32.5" as="geometry"/>
                </mxCell>
                <mxCell id="33" style="edgeStyle=none;html=1;exitX=0;exitY=0.5;exitDx=0;exitDy=0;entryX=0.5;entryY=0;entryDx=0;entryDy=0;" edge="1" parent="1" source="22" target="26">
                    <mxGeometry relative="1" as="geometry">
                        <Array as="points">
                            <mxPoint x="460" y="486"/>
                        </Array>
                    </mxGeometry>
                </mxCell>
                <mxCell id="34" style="edgeStyle=none;html=1;exitX=1;exitY=0.5;exitDx=0;exitDy=0;entryX=0.5;entryY=0;entryDx=0;entryDy=0;" edge="1" parent="1" source="22" target="16">
                    <mxGeometry relative="1" as="geometry">
                        <Array as="points">
                            <mxPoint x="605" y="486"/>
                        </Array>
                    </mxGeometry>
                </mxCell>
                <mxCell id="22" value="&lt;b&gt;&lt;font color=&quot;#000000&quot; style=&quot;font-size: 13px;&quot;&gt;opc = 2&lt;/font&gt;&lt;/b&gt;" style="rhombus;whiteSpace=wrap;html=1;fillColor=#fad9d5;strokeColor=#ae4132;" parent="1" vertex="1">
                    <mxGeometry x="510" y="460" width="60" height="52.5" as="geometry"/>
                </mxCell>
                <mxCell id="37" style="edgeStyle=none;html=1;exitX=0;exitY=0.5;exitDx=0;exitDy=0;entryX=0.5;entryY=0;entryDx=0;entryDy=0;" edge="1" parent="1" source="26" target="28">
                    <mxGeometry relative="1" as="geometry">
                        <Array as="points">
                            <mxPoint x="400" y="540"/>
                        </Array>
                    </mxGeometry>
                </mxCell>
                <mxCell id="44" style="edgeStyle=none;html=1;exitX=1;exitY=0.5;exitDx=0;exitDy=0;entryX=0.5;entryY=0;entryDx=0;entryDy=0;" edge="1" parent="1" source="26" target="40">
                    <mxGeometry relative="1" as="geometry">
                        <Array as="points">
                            <mxPoint x="535" y="542"/>
                        </Array>
                    </mxGeometry>
                </mxCell>
                <mxCell id="26" value="&lt;b&gt;&lt;font color=&quot;#000000&quot; style=&quot;font-size: 13px;&quot;&gt;opc = 3&lt;/font&gt;&lt;/b&gt;" style="rhombus;whiteSpace=wrap;html=1;fillColor=#b1ddf0;strokeColor=#10739e;" vertex="1" parent="1">
                    <mxGeometry x="430" y="515.63" width="60" height="52.5" as="geometry"/>
                </mxCell>
                <mxCell id="38" style="edgeStyle=none;html=1;exitX=0;exitY=0.5;exitDx=0;exitDy=0;entryX=0.5;entryY=0;entryDx=0;entryDy=0;" edge="1" parent="1" source="28" target="29">
                    <mxGeometry relative="1" as="geometry">
                        <Array as="points">
                            <mxPoint x="340" y="594"/>
                        </Array>
                    </mxGeometry>
                </mxCell>
                <mxCell id="45" style="edgeStyle=none;html=1;exitX=1;exitY=0.5;exitDx=0;exitDy=0;entryX=0.5;entryY=0;entryDx=0;entryDy=0;" edge="1" parent="1" source="28" target="41">
                    <mxGeometry relative="1" as="geometry">
                        <Array as="points">
                            <mxPoint x="465" y="594"/>
                        </Array>
                    </mxGeometry>
                </mxCell>
                <mxCell id="28" value="&lt;b&gt;&lt;font color=&quot;#000000&quot; style=&quot;font-size: 13px;&quot;&gt;opc = 4&lt;/font&gt;&lt;/b&gt;" style="rhombus;whiteSpace=wrap;html=1;fillColor=#d0cee2;strokeColor=#56517e;" vertex="1" parent="1">
                    <mxGeometry x="370" y="568.13" width="60" height="52.5" as="geometry"/>
                </mxCell>
                <mxCell id="39" style="edgeStyle=none;html=1;exitX=0;exitY=0.5;exitDx=0;exitDy=0;entryX=0.5;entryY=0;entryDx=0;entryDy=0;" edge="1" parent="1" source="29" target="30">
                    <mxGeometry relative="1" as="geometry">
                        <Array as="points">
                            <mxPoint x="280" y="647"/>
                        </Array>
                    </mxGeometry>
                </mxCell>
                <mxCell id="46" style="edgeStyle=none;html=1;exitX=1;exitY=0.5;exitDx=0;exitDy=0;entryX=0.5;entryY=0;entryDx=0;entryDy=0;" edge="1" parent="1" source="29" target="42">
                    <mxGeometry relative="1" as="geometry">
                        <Array as="points">
                            <mxPoint x="395" y="647"/>
                        </Array>
                    </mxGeometry>
                </mxCell>
                <mxCell id="29" value="&lt;b&gt;&lt;font color=&quot;#000000&quot; style=&quot;font-size: 13px;&quot;&gt;opc = 5&lt;/font&gt;&lt;/b&gt;" style="rhombus;whiteSpace=wrap;html=1;fillColor=#f8cecc;strokeColor=#b85450;gradientColor=#ea6b66;" vertex="1" parent="1">
                    <mxGeometry x="310" y="620.63" width="60" height="52.5" as="geometry"/>
                </mxCell>
                <mxCell id="47" style="edgeStyle=none;html=1;exitX=1;exitY=0.5;exitDx=0;exitDy=0;entryX=0.5;entryY=0;entryDx=0;entryDy=0;" edge="1" parent="1" source="30" target="43">
                    <mxGeometry relative="1" as="geometry">
                        <Array as="points">
                            <mxPoint x="325" y="700"/>
                        </Array>
                    </mxGeometry>
                </mxCell>
                <mxCell id="50" style="edgeStyle=none;html=1;exitX=0;exitY=0.5;exitDx=0;exitDy=0;entryX=0.5;entryY=0;entryDx=0;entryDy=0;" edge="1" parent="1" source="30" target="49">
                    <mxGeometry relative="1" as="geometry">
                        <Array as="points">
                            <mxPoint x="185" y="700"/>
                        </Array>
                    </mxGeometry>
                </mxCell>
                <mxCell id="30" value="&lt;b&gt;&lt;font color=&quot;#000000&quot; style=&quot;font-size: 13px;&quot;&gt;opc = 6&lt;/font&gt;&lt;/b&gt;" style="rhombus;whiteSpace=wrap;html=1;fillColor=#fad9d5;strokeColor=#ae4132;" vertex="1" parent="1">
                    <mxGeometry x="250" y="673.13" width="60" height="52.5" as="geometry"/>
                </mxCell>
                <mxCell id="56" style="edgeStyle=none;html=1;exitX=0.5;exitY=1;exitDx=0;exitDy=0;" edge="1" parent="1" source="40">
                    <mxGeometry relative="1" as="geometry">
                        <mxPoint x="535" y="820" as="targetPoint"/>
                    </mxGeometry>
                </mxCell>
                <mxCell id="40" value="&lt;b&gt;&lt;font color=&quot;#000000&quot; style=&quot;font-size: 13px;&quot;&gt;r = x * y&lt;/font&gt;&lt;/b&gt;" style="rounded=0;whiteSpace=wrap;html=1;fillColor=#6d8764;fontColor=#ffffff;strokeColor=#3A5431;" vertex="1" parent="1">
                    <mxGeometry x="500" y="578.13" width="70" height="32.5" as="geometry"/>
                </mxCell>
                <mxCell id="54" style="edgeStyle=none;html=1;exitX=0.5;exitY=1;exitDx=0;exitDy=0;" edge="1" parent="1" source="41">
                    <mxGeometry relative="1" as="geometry">
                        <mxPoint x="465" y="820" as="targetPoint"/>
                    </mxGeometry>
                </mxCell>
                <mxCell id="41" value="&lt;b&gt;&lt;font style=&quot;font-size: 13px;&quot;&gt;r = x / y&lt;/font&gt;&lt;/b&gt;" style="rounded=0;whiteSpace=wrap;html=1;fillColor=#fa6800;fontColor=#000000;strokeColor=#C73500;" vertex="1" parent="1">
                    <mxGeometry x="430" y="630.63" width="70" height="32.5" as="geometry"/>
                </mxCell>
                <mxCell id="53" style="edgeStyle=none;html=1;exitX=0.5;exitY=1;exitDx=0;exitDy=0;" edge="1" parent="1" source="42">
                    <mxGeometry relative="1" as="geometry">
                        <mxPoint x="395" y="820" as="targetPoint"/>
                    </mxGeometry>
                </mxCell>
                <mxCell id="42" value="&lt;b&gt;&lt;font style=&quot;font-size: 13px;&quot;&gt;r = x ^ y&lt;/font&gt;&lt;/b&gt;" style="rounded=0;whiteSpace=wrap;html=1;fillColor=#f0a30a;fontColor=#000000;strokeColor=#BD7000;" vertex="1" parent="1">
                    <mxGeometry x="360" y="683.13" width="70" height="32.5" as="geometry"/>
                </mxCell>
                <mxCell id="52" style="edgeStyle=none;html=1;exitX=0.5;exitY=1;exitDx=0;exitDy=0;" edge="1" parent="1" source="43">
                    <mxGeometry relative="1" as="geometry">
                        <mxPoint x="325" y="820" as="targetPoint"/>
                    </mxGeometry>
                </mxCell>
                <mxCell id="43" value="&lt;b style=&quot;font-size: 13px;&quot;&gt;&lt;font color=&quot;#000000&quot;&gt;r = long&lt;sub&gt;x y&lt;/sub&gt;&lt;/font&gt;&lt;/b&gt;" style="rounded=0;whiteSpace=wrap;html=1;fillColor=#fad7ac;strokeColor=#b46504;" vertex="1" parent="1">
                    <mxGeometry x="290" y="740" width="70" height="32.5" as="geometry"/>
                </mxCell>
                <mxCell id="49" value="&lt;b&gt;&lt;font color=&quot;#000000&quot; style=&quot;font-size: 13px;&quot;&gt;r = &quot;No valido&quot;&lt;/font&gt;&lt;/b&gt;" style="rounded=0;whiteSpace=wrap;html=1;fillColor=#e51400;fontColor=#ffffff;strokeColor=#B20000;" vertex="1" parent="1">
                    <mxGeometry x="150" y="750" width="70" height="32.5" as="geometry"/>
                </mxCell>
                <mxCell id="62" value="" style="edgeStyle=none;html=1;" edge="1" parent="1" source="58" target="61">
                    <mxGeometry relative="1" as="geometry"/>
                </mxCell>
                <mxCell id="58" value="&lt;b&gt;&lt;font color=&quot;#000000&quot; style=&quot;font-size: 16px;&quot;&gt;r&lt;/font&gt;&lt;/b&gt;" style="shape=document;whiteSpace=wrap;html=1;boundedLbl=1;fillColor=#ffff88;strokeColor=#36393d;" vertex="1" parent="1">
                    <mxGeometry x="430" y="860" width="70" height="60" as="geometry"/>
                </mxCell>
                <mxCell id="60" value="" style="endArrow=classic;html=1;entryX=0.5;entryY=0;entryDx=0;entryDy=0;" edge="1" parent="1" target="58">
                    <mxGeometry width="50" height="50" relative="1" as="geometry">
                        <mxPoint x="465" y="820" as="sourcePoint"/>
                        <mxPoint x="630" y="660" as="targetPoint"/>
                    </mxGeometry>
                </mxCell>
                <mxCell id="61" value="&lt;b&gt;&lt;font color=&quot;#000000&quot; style=&quot;font-size: 14px;&quot;&gt;fin&lt;/font&gt;&lt;/b&gt;" style="ellipse;whiteSpace=wrap;html=1;fillColor=#ffcc99;strokeColor=#36393d;" vertex="1" parent="1">
                    <mxGeometry x="430" y="950" width="65" height="40" as="geometry"/>
                </mxCell>
                <mxCell id="64" value="" style="endArrow=none;html=1;exitX=0.5;exitY=1;exitDx=0;exitDy=0;entryX=0.5;entryY=1;entryDx=0;entryDy=0;" edge="1" parent="1" source="49" target="63">
                    <mxGeometry width="50" height="50" relative="1" as="geometry">
                        <mxPoint x="185" y="782.5" as="sourcePoint"/>
                        <mxPoint x="730" y="490" as="targetPoint"/>
                        <Array as="points">
                            <mxPoint x="185" y="820"/>
                            <mxPoint x="725" y="820"/>
                        </Array>
                    </mxGeometry>
                </mxCell>
                <mxCell id="63" value="&lt;font color=&quot;#000000&quot; style=&quot;font-size: 13px;&quot;&gt;&lt;b&gt;r = x + y&lt;/b&gt;&lt;/font&gt;" style="rounded=0;whiteSpace=wrap;html=1;fillColor=#e1d5e7;strokeColor=#9673a6;" vertex="1" parent="1">
                    <mxGeometry x="690" y="483.13" width="70" height="32.5" as="geometry"/>
                </mxCell>
            </root>
        </mxGraphModel>
    </diagram>
</mxfile>